HIERARCHY
ROOT Hips
{
	OFFSET 47.199902 -33.481617 84.384895
	CHANNELS 6 Xposition Yposition Zposition Xrotation Yrotation Zrotation
	JOINT spine
	{
		OFFSET 0.000000 -0.359108 6.244789
		CHANNELS 3 Xrotation Yrotation Zrotation
		JOINT spine1
		{
			OFFSET 0.000000 0.000000 9.069412
			CHANNELS 3 Xrotation Yrotation Zrotation
			JOINT spine2
			{
				OFFSET 0.000000 -0.000004 8.690140
				CHANNELS 3 Xrotation Yrotation Zrotation
				JOINT Neck
				{
					OFFSET 0.000000 -1.063725 22.311203
					CHANNELS 3 Xrotation Yrotation Zrotation
					JOINT Head
					{
						OFFSET 0.000000 0.000000 6.740814
						CHANNELS 3 Xrotation Yrotation Zrotation
						End Site
						{
							OFFSET 0.000000 5.380968 16.316498
						}
					}
				}
				JOINT RightShoulder
				{
					OFFSET -3.659161 0.509514 9.384682
					CHANNELS 3 Xrotation Yrotation Zrotation
					JOINT RightArm
					{
						OFFSET 0.000000 -0.000004 12.308907
						CHANNELS 3 Xrotation Yrotation Zrotation
						JOINT RightArmRoll
						{
							OFFSET 0.000000 0.000000 6.213745
							CHANNELS 3 Xrotation Yrotation Zrotation
							JOINT RightForeArm
							{
								OFFSET 0.000000 -0.000004 18.098495
								CHANNELS 3 Xrotation Yrotation Zrotation
								JOINT RightForeArmRoll
								{
									OFFSET 0.000000 0.000000 6.972794
									CHANNELS 3 Xrotation Yrotation Zrotation
									JOINT RightHand
									{
										OFFSET 0.000000 0.000000 13.992905
										CHANNELS 3 Xrotation Yrotation Zrotation
										End Site
										{
											OFFSET 0.000000 0.000000 0.100006
										}
									}
								}
							}
						}
					}
				}
				JOINT LeftShoulder
				{
					OFFSET 3.659161 0.509514 9.384682
					CHANNELS 3 Xrotation Yrotation Zrotation
					JOINT LeftArm
					{
						OFFSET 0.000000 -0.000004 12.308907
						CHANNELS 3 Xrotation Yrotation Zrotation
						JOINT LeftArmRoll
						{
							OFFSET 0.000000 0.000000 6.213745
							CHANNELS 3 Xrotation Yrotation Zrotation
							JOINT LeftForeArm
							{
								OFFSET 0.000000 -0.000004 18.098495
								CHANNELS 3 Xrotation Yrotation Zrotation
								JOINT LeftForeArmRoll
								{
									OFFSET 0.000000 0.000000 6.972794
									CHANNELS 3 Xrotation Yrotation Zrotation
									JOINT LeftHand
									{
										OFFSET 0.000000 0.000000 13.992905
										CHANNELS 3 Xrotation Yrotation Zrotation
										End Site
										{
											OFFSET 0.000000 0.000000 0.100006
										}
									}
								}
							}
						}
					}
				}
			}
		}
	}
	JOINT RightUpLeg
	{
		OFFSET -5.535149 0.851456 -1.014999
		CHANNELS 3 Xrotation Yrotation Zrotation
		JOINT RightUpLegRoll
		{
			OFFSET 0.000000 0.000000 16.407501
			CHANNELS 3 Xrotation Yrotation Zrotation
			JOINT RightLeg
			{
				OFFSET 0.000000 0.000004 -20.318100
				CHANNELS 3 Xrotation Yrotation Zrotation
				JOINT RightLegRoll
				{
					OFFSET 0.000000 -0.000004 20.384598
					CHANNELS 3 Xrotation Yrotation Zrotation
					JOINT RightFoot
					{
						OFFSET 0.000000 -0.000004 16.966797
						CHANNELS 3 Xrotation Yrotation Zrotation
						JOINT RightToeBase
						{
							OFFSET 0.000000 -0.000004 14.183403
							CHANNELS 3 Xrotation Yrotation Zrotation
							End Site
							{
								OFFSET 0.006012 0.791746 6.868896
							}
						}
					}
				}
			}
		}
	}
	JOINT LeftUpLeg
	{
		OFFSET 5.535149 0.851456 -1.014999
		CHANNELS 3 Xrotation Yrotation Zrotation
		JOINT LeftUpLegRoll
		{
			OFFSET 0.000000 0.000000 16.407600
			CHANNELS 3 Xrotation Yrotation Zrotation
			JOINT LeftLeg
			{
				OFFSET 0.000000 -0.000004 20.318100
				CHANNELS 3 Xrotation Yrotation Zrotation
				JOINT LeftLegRoll
				{
					OFFSET 0.000000 -0.000004 20.573105
					CHANNELS 3 Xrotation Yrotation Zrotation
					JOINT LeftFoot
					{
						OFFSET 0.000000 -0.000004 16.778305
						CHANNELS 3 Xrotation Yrotation Zrotation
						JOINT LeftToeBase
						{
							OFFSET 0.000000 0.000000 14.183395
							CHANNELS 3 Xrotation Yrotation Zrotation
							End Site
							{
								OFFSET -0.026943 0.791744 6.868896
							}
						}
					}
				}
			}
		}
	}
}
MOTION
Frames: 4
Frame Time: 0.041667
49.558998 -24.463516 71.237801 19.951840 3.180888 -4.042883 -0.514058 0.295626 -0.072012 2.975069 0.591108 -0.144555 4.620179 0.589335 -0.151626 -35.631891 -8.297865 -3.087003 12.390880 4.957391 0.505603 -13.815530 -65.213082 -16.490042 127.760628 -40.998480 112.453184 0.000000 0.000000 -0.000001 15.912541 -23.628479 3.759358 0.000013 0.000003 -3.000020 -5.000153 -7.998753 0.000142 -17.626408 61.884704 20.838134 -54.881311 141.484555 60.193091 0.000002 0.000031 -0.000004 9.177185 13.625046 -0.944577 0.000022 -0.000007 2.999999 -5.000323 7.998880 -0.000166 -61.090523 170.553020 -3.027354 179.999991 -0.000005 -0.951003 111.101312 2.657373 0.884968 0.000003 0.000001 2.365710 88.016563 6.118339 3.559016 26.943338 -7.312698 2.074896 -61.095974 176.482826 3.749037 0.000007 -0.000004 -1.155290 -78.063516 -4.622038 -2.169736 -0.000004 0.000003 -3.503390 86.724312 -5.824280 -4.978585 33.473746 6.543261 -6.307093 
49.553604 -24.521420 71.302689 19.870566 3.184045 -4.020981 -0.517944 0.295998 -0.073507 2.967298 0.591849 -0.147232 4.612405 0.590044 -0.154310 -35.559444 -8.308483 -3.075556 12.401962 4.990654 0.509516 -13.846718 -65.276938 -16.527753 127.734004 -41.149936 112.514731 0.000001 0.000000 -0.000000 15.882674 -23.597697 3.747550 0.000012 0.000003 -3.000021 -5.000148 -7.998752 0.000142 -17.711415 61.867573 20.937378 -54.774589 141.347036 60.054848 0.000001 0.000031 -0.000002 9.257149 13.619505 -0.952025 0.000025 -0.000008 2.999999 -5.000325 7.998881 -0.000164 -60.862211 170.584084 -3.026448 179.999991 -0.000005 -0.948995 111.268085 2.634335 0.859297 0.000003 0.000001 2.354339 88.003702 6.119329 3.554619 26.962409 -7.312474 2.058838 -60.876971 176.473346 3.738870 0.000010 -0.000004 -1.154880 -77.897652 -4.615149 -2.151099 0.000002 0.000003 -3.495500 86.717646 -5.825701 -4.972160 33.463911 6.545281 -6.298789 
49.549000 -24.564520 71.372292 19.791083 3.187160 -3.999654 -0.522281 0.296284 -0.075032 2.958648 0.592392 -0.149845 4.603747 0.590556 -0.156931 -35.484759 -8.317181 -3.063157 12.412914 5.022500 0.513387 -13.873180 -65.340745 -16.560038 127.706014 -41.302010 112.583490 0.000001 0.000000 -0.000001 15.850338 -23.561897 3.733883 0.000014 0.000005 -3.000020 -5.000151 -7.998752 0.000145 -17.794694 61.851564 21.034595 -54.666259 141.209530 59.908040 0.000001 0.000031 -0.000003 9.337219 13.609987 -0.958606 0.000027 -0.000010 2.999999 -5.000324 7.998880 -0.000164 -60.635216 170.613686 -3.026708 179.999991 -0.000005 -0.947998 111.435964 2.612264 0.836475 0.000004 0.000001 2.343080 87.990745 6.120358 3.550225 26.984826 -7.312235 2.039983 -60.660597 176.462923 3.728068 0.000010 -0.000004 -1.154350 -77.731186 -4.607425 -2.131945 0.000002 0.000003 -3.487310 86.709900 -5.827090 -4.965397 33.454570 6.547415 -6.290053 
49.537201 -24.624012 71.433594 19.713615 3.190342 -3.978861 -0.527081 0.296433 -0.076679 2.949039 0.592598 -0.152554 4.594145 0.590729 -0.159642 -35.408151 -8.323011 -3.049405 12.423938 5.052544 0.517175 -13.894411 -65.403713 -16.586290 127.677355 -41.455150 112.658957 0.000001 -0.000000 -0.000000 15.816159 -23.521601 3.718646 0.000012 0.000004 -3.000020 -5.000152 -7.998750 0.000145 -17.875836 61.836995 21.129288 -54.558356 141.070386 59.756123 0.000002 0.000031 -0.000003 9.417339 13.597673 -0.964453 0.000025 -0.000010 3.000000 -5.000323 7.998882 -0.000164 -60.409984 170.641321 -3.027623 179.999991 -0.000005 -0.946003 111.604806 2.590791 0.813582 0.000003 0.000001 2.331910 87.977993 6.121437 3.545728 27.009969 -7.312013 2.018637 -60.447167 176.451544 3.717018 0.000011 -0.000004 -1.153720 -77.564427 -4.599063 -2.112271 -0.000003 0.000002 -3.478911 86.700926 -5.828698 -4.958298 33.445357 6.549657 -6.281215 
